<?xml version="1.0" encoding="iso-8859-1"?>
<!DOCTYPE svg PUBLIC "-//W3C//DTD SVG 1.1//EN" "http://www.w3.org/Graphics/SVG/1.1/DTD/svg11.dtd">
<svg version="1.1" id="Layer_1" xmlns="http://www.w3.org/2000/svg" xmlns:xlink="http://www.w3.org/1999/xlink" x="0px" y="0px"
	 width="155.004px" height="110px" viewBox="0 0 155.004 110" style="enable-background:new 0 0 155.004 110;" xml:space="preserve"
	>
<radialGradient id="SVGID_1_" cx="65.585" cy="54.5762" r="50" gradientUnits="userSpaceOnUse">
	<stop  offset="0.5744" style="stop-color:#000000;stop-opacity:0"/>
	<stop  offset="0.7977" style="stop-color:#000000;stop-opacity:0.6512"/>
	<stop  offset="1" style="stop-color:#000000;stop-opacity:0.95"/>
</radialGradient>
<circle style="fill:url(#SVGID_1_);stroke:#000000;stroke-width:5;stroke-linecap:round;stroke-miterlimit:10;" cx="65.585" cy="54.576" r="50"/>
<g>
	
		<circle style="fill:none;stroke:#4D4D4D;stroke-width:20;stroke-miterlimit:10;stroke-dasharray:4.9853,0.9971;" cx="65.585" cy="55" r="40">
			<animateTransform attributeType="xml"
	                    attributeName="transform"
	                    type="rotate"
	                    from="0 65.585 55"
	                    to="360 65.585 55"
	                    dur="25s"
	                    repeatCount="indefinite"/>
		</circle>
</g>
<g>
	
		<circle style="fill:none;stroke:#000000;stroke-width:10;stroke-linecap:round;stroke-miterlimit:10;stroke-dasharray:31.4077,31.4077;" cx="65.584" cy="55" r="50"/>
</g>
<g>
	<path style="fill:#00A0C6;" d="M0,84.792h36.844v3.586H0V84.792z"/>
	<path style="fill:#00A0C6;" d="M40.008,54.698c0-7.102,2.32-13.043,6.961-17.824s10.688-7.172,18.141-7.172
		c7.523,0,13.652,2.391,18.387,7.172c4.733,4.781,7.102,10.77,7.102,17.965c0,7.336-2.408,13.39-7.225,18.158
		c-4.816,4.77-10.939,7.154-18.369,7.154c-4.734,0-9.088-1.13-13.061-3.393c-3.973-2.262-6.956-5.414-8.947-9.457
		C41.004,63.259,40.008,59.058,40.008,54.698z M48.059,54.733c0,5.367,1.57,9.867,4.711,13.5c3.141,3.634,7.265,5.449,12.375,5.449
		c5.063,0,9.223-1.857,12.48-5.572c3.257-3.714,4.887-8.15,4.887-13.307c0-5.203-1.658-9.603-4.975-13.201
		c-3.317-3.598-7.483-5.396-12.498-5.396c-4.992,0-9.07,1.77-12.234,5.309C49.641,45.054,48.059,49.46,48.059,54.733z"/>
	<path style="fill:#00A0C6;" d="M108.738,45.347v4.113c4.289-3.094,8.203-4.641,11.742-4.641c2.203,0,4.025,0.522,5.467,1.564
		c1.441,1.043,2.385,2.32,2.83,3.832s0.668,3.721,0.668,6.627v16.594h5.73v5.941h-12.41V57.124c0-2.578-0.387-4.259-1.16-5.045
		c-0.773-0.785-1.723-1.178-2.848-1.178c-2.953,0-6.293,1.441-10.02,4.324v18.211h5.871v5.941H96.082v-5.941h5.977V51.288h-5.977
		v-5.941H108.738z"/>
	<path style="fill:#00A0C6;" d="M143.051,73.437V51.288h-5.273v-5.941h11.953v28.09h5.273v5.941h-17.227v-5.941H143.051z
		 M142.102,33.78c0-1.078,0.381-2.016,1.143-2.813c0.762-0.796,1.729-1.195,2.9-1.195c1.102,0,2.051,0.387,2.848,1.16
		s1.195,1.723,1.195,2.848s-0.398,2.08-1.195,2.865c-0.797,0.786-1.746,1.178-2.848,1.178c-1.125,0-2.08-0.398-2.865-1.195
		C142.494,35.832,142.102,34.882,142.102,33.78z"/>
</g>
<rect x="96.082" y="32.833" style="fill:#00A0C6;" width="48.675" height="2.167"/>
</svg>
